<svg xmlns="http://www.w3.org/2000/svg" viewBox="0 0 200 200">
  <defs>
    <linearGradient id="holeGrad" x1="0%" y1="0%" x2="0%" y2="100%">
      <stop offset="0%" style="stop-color:#3E2723;stop-opacity:1" />
      <stop offset="100%" style="stop-color:#1B0000;stop-opacity:1" />
    </linearGradient>
    <linearGradient id="moleGrad" x1="0%" y1="0%" x2="0%" y2="100%">
      <stop offset="0%" style="stop-color:#8D6E63;stop-opacity:1" />
      <stop offset="100%" style="stop-color:#5D4037;stop-opacity:1" />
    </linearGradient>
  </defs>
  
  <!-- Ground Hole -->
  <ellipse cx="100" cy="160" rx="80" ry="30" fill="url(#holeGrad)" />
  
  <!-- Mole Body -->
  <path d="M60,160 Q60,80 100,80 Q140,80 140,160" fill="url(#moleGrad)" />
  
  <!-- Mole Face -->
  <ellipse cx="85" cy="110" rx="5" ry="8" fill="#333" /> <!-- Left Eye -->
  <ellipse cx="115" cy="110" rx="5" ry="8" fill="#333" /> <!-- Right Eye -->
  <ellipse cx="100" cy="125" rx="12" ry="8" fill="#FFCCBC" /> <!-- Nose -->
  <path d="M90,140 Q100,150 110,140" fill="none" stroke="#333" stroke-width="3" stroke-linecap="round" /> <!-- Smile -->
  
  <!-- Mallet -->
  <g transform="rotate(-20, 160, 60)">
    <rect x="150" y="40" width="20" height="80" fill="#8D6E63" rx="5" /> <!-- Handle -->
    <rect x="130" y="20" width="60" height="40" fill="#D32F2F" rx="5" /> <!-- Head -->
    <rect x="130" y="20" width="10" height="40" fill="#B71C1C" rx="5" /> <!-- Head Detail Left -->
    <rect x="180" y="20" width="10" height="40" fill="#B71C1C" rx="5" /> <!-- Head Detail Right -->
  </g>
  
  <!-- Motion Lines -->
  <path d="M130,50 L110,70" stroke="#333" stroke-width="3" stroke-linecap="round" />
  <path d="M140,40 L125,55" stroke="#333" stroke-width="3" stroke-linecap="round" />
</svg>
